<?xml version="1.0" encoding="UTF-8"?>
<svg version="1.1" xmlns="http://www.w3.org/2000/svg" width="218" height="218">
<path d="M0 0 C21.02296873 17.90401188 33.88946997 39.97332698 36.4375 67.75 C37.53209644 83.01673986 34.96962907 98.90120416 28.4375 112.75 C28.16309082 113.34232422 27.88868164 113.93464844 27.60595703 114.54492188 C16.48271058 138.18105197 -3.10700671 154.97509271 -27.65625 163.87109375 C-37.78750512 167.10220666 -48.0055804 167.9428311 -58.5625 168.75 C-57.96641854 164.29198233 -56.16472188 160.80729708 -54 156.9375 C-53.26783779 155.59597494 -52.53742304 154.25349495 -51.80859375 152.91015625 C-51.43460449 152.22195801 -51.06061523 151.53375977 -50.67529297 150.82470703 C-44.5262532 139.36034986 -39.04920912 127.54058769 -33.5625 115.75 C-35.5425 115.09 -37.5225 114.43 -39.5625 113.75 C-38.9025 113.09 -38.2425 112.43 -37.5625 111.75 C-22.3825 117.03 -7.2025 122.31 8.4375 127.75 C6.7875 120.82 5.1375 113.89 3.4375 106.75 C4.4375 100.75 4.4375 100.75 6.4375 97.75 C5.1175 97.75 3.7975 97.75 2.4375 97.75 C2.4375 97.09 2.4375 96.43 2.4375 95.75 C3.0975 95.42 3.7575 95.09 4.4375 94.75 C4.1075 90.46 3.7775 86.17 3.4375 81.75 C7.3975 80.1 11.3575 78.45 15.4375 76.75 C13.62113375 72.20908437 11.98774893 69.63239305 9 65.875 C8.10666921 64.73677738 7.21480222 63.59740475 6.32421875 62.45703125 C5.85677246 61.85971191 5.38932617 61.26239258 4.90771484 60.64697266 C2.32924142 57.3200483 -0.18456218 53.94644245 -2.6875 50.5625 C-3.17275146 49.91490723 -3.65800293 49.26731445 -4.15795898 48.60009766 C-7.5625 43.98312378 -7.5625 43.98312378 -7.5625 41.75 C-13.5025 42.245 -13.5025 42.245 -19.5625 42.75 C-19.5625 42.09 -19.5625 41.43 -19.5625 40.75 C-15.79374981 39.57652898 -12.02217916 38.41239667 -8.25 37.25 C-7.17814453 36.91613281 -6.10628906 36.58226562 -5.00195312 36.23828125 C-3.97392578 35.92246094 -2.94589844 35.60664062 -1.88671875 35.28125 C-0.93885498 34.98798828 0.00900879 34.69472656 0.9855957 34.39257812 C3.4375 33.75 3.4375 33.75 6.4375 33.75 C5.95542644 31.24641128 5.95542644 31.24641128 4.4375 28.75 C1.15045284 27.46514394 1.15045284 27.46514394 -2.5625 26.75 C-7.07302122 25.50176752 -10.00828837 23.90718679 -13.5625 20.875 C-14.50222656 20.0809375 -15.44195312 19.286875 -16.41015625 18.46875 C-17.46155663 17.56321837 -18.51229794 16.65692112 -19.5625 15.75 C-20.79004006 14.69753805 -22.01791758 13.64546958 -23.24609375 12.59375 C-25.09770792 11.0078147 -26.94769387 9.42027589 -28.79101562 7.82470703 C-29.8976358 6.86861508 -31.0110742 5.92033745 -32.13232422 4.98144531 C-33.5625 3.75 -33.5625 3.75 -35.41015625 1.8359375 C-41.64615904 -1.31035792 -52.33174797 2.99954628 -58.75390625 4.62890625 C-59.89858871 4.91926254 -61.04327118 5.20961884 -62.22264099 5.5087738 C-64.63143639 6.1244501 -67.03922572 6.74407466 -69.44604492 7.36743164 C-71.89737135 7.99714062 -74.35185596 8.61468167 -76.80932617 9.2199707 C-80.38166588 10.10009159 -83.94292466 11.01653277 -87.50390625 11.94140625 C-89.13858604 12.33411461 -89.13858604 12.33411461 -90.80628967 12.73475647 C-102.28127909 15.81039804 -106.53464155 22.37952207 -113.5625 31.75 C-100.0325 27.79 -86.5025 23.83 -72.5625 19.75 C-67.95656346 30.11335722 -67.95656346 30.11335722 -66.25 35.5625 C-65.90324219 36.64144531 -65.55648437 37.72039062 -65.19921875 38.83203125 C-64.5625 41.75 -64.5625 41.75 -65.5625 45.75 C-68.5325 38.82 -71.5025 31.89 -74.5625 24.75 C-82.4615354 26.68731314 -90.29241967 28.76486033 -98.1015625 31.03515625 C-100.24996943 31.65440295 -102.39840787 32.27354033 -104.546875 32.89257812 C-107.87577587 33.8543316 -111.20429439 34.81737037 -114.53222656 35.7824707 C-117.78349093 36.72441909 -121.03617777 37.66132138 -124.2890625 38.59765625 C-125.27162018 38.88415543 -126.25417786 39.1706546 -127.26651001 39.46583557 C-133.31970726 41.2046301 -139.36645811 42.61995842 -145.5625 43.75 C-144.2131761 29.31909525 -132.56743988 16.37431717 -122.5625 6.75 C-121.77875 5.98171875 -120.995 5.2134375 -120.1875 4.421875 C-87.66017463 -26.01440802 -34.72168935 -27.63166607 0 0 Z " fill="#231F21" transform="translate(166.5625,34.25)"/>
<path d="M0 0 C3.4524876 2.88610233 6.74656437 5.89265993 10 9 C10.67417969 9.59941406 11.34835938 10.19882812 12.04296875 10.81640625 C25.80727633 23.53671445 34.38960552 42.12652756 39 60 C39.35707031 61.26070313 39.71414062 62.52140625 40.08203125 63.8203125 C41.49961377 70.35994716 41.37202157 77.03879078 41.37060547 83.69873047 C41.37493872 85.96790999 41.41123222 88.23507438 41.44921875 90.50390625 C41.5554194 104.17197603 39.19367439 117.2804172 33.6875 129.875 C33.2397522 130.92602905 33.2397522 130.92602905 32.78295898 131.99829102 C28.35000869 142.10169936 22.04315001 150.57084859 15 159 C14.48179687 159.66515625 13.96359375 160.3303125 13.4296875 161.015625 C-1.81663128 179.86283315 -26.45449913 191.36734106 -50 195 C-55.01913383 195.44307654 -60.04043127 195.47520909 -65.07592773 195.44604492 C-67.30091453 195.43754426 -69.52331169 195.46641557 -71.74804688 195.49804688 C-100.22243297 195.63900627 -125.7294167 183.01941767 -146 163.4375 C-164.91415235 144.54147913 -176.11134091 117.4706103 -176.3293457 90.83862305 C-176.32378662 89.65437744 -176.31822754 88.47013184 -176.3125 87.25 C-176.30758545 86.0122583 -176.3026709 84.7745166 -176.29760742 83.49926758 C-176.18377257 74.61839767 -175.51346942 66.55800722 -173 58 C-172.67128906 56.80246094 -172.34257812 55.60492188 -172.00390625 54.37109375 C-167.72361596 40.16763912 -160.88085884 27.09666765 -151 16 C-150.360625 15.20722656 -149.72125 14.41445313 -149.0625 13.59765625 C-135.80560749 -2.29555011 -116.031825 -14.13337258 -96 -19 C-94.95972656 -19.29648437 -93.91945313 -19.59296875 -92.84765625 -19.8984375 C-61.00922898 -27.84892678 -25.6396935 -20.27646477 0 0 Z M-132 10 C-132.65097656 10.50015625 -133.30195313 11.0003125 -133.97265625 11.515625 C-146.71588381 21.61731791 -156.69699945 37.75878361 -162 53 C-162.55300781 54.56234375 -162.55300781 54.56234375 -163.1171875 56.15625 C-171.49623549 82.33312984 -168.47912535 109.26162638 -156.01098633 133.47998047 C-143.30267258 157.39625891 -122.59012294 174.44856397 -97 183 C-70.72671615 190.77627322 -44.03625801 187.7715779 -19.7578125 175.33984375 C3.74151455 162.21490154 21.85910878 140.67619156 29.4777832 114.76220703 C36.6969468 88.7504507 33.5113918 61.88638735 21 38 C7.39055158 14.15324891 -14.96555734 -2.70117578 -41.11303711 -10.3215332 C-73.09005361 -18.91232131 -106.61868639 -11.0653024 -132 10 Z " fill="#231E20" transform="translate(177,23)"/>
<path d="M0 0 C-3.27487723 1.77420097 -6.58107935 2.89206683 -10.13671875 3.98828125 C-11.34690674 4.36283447 -12.55709473 4.7373877 -13.80395508 5.12329102 C-15.09842306 5.51984742 -16.39293887 5.91624776 -17.6875 6.3125 C-19.00095003 6.71718857 -20.31434508 7.12205562 -21.62768555 7.52709961 C-31.06178284 10.43092814 -40.51456802 13.26830541 -50 16 C-33.24022192 19.69700987 -17.13329237 14.27664674 -1 10 C-1 10.66 -1 11.32 -1 12 C-2.20946289 12.3853894 -2.20946289 12.3853894 -3.44335938 12.77856445 C-6.47056977 13.74423761 -9.49718985 14.71173432 -12.5234375 15.68041992 C-13.82659369 16.09715305 -15.12997434 16.51318501 -16.43359375 16.9284668 C-23.35316739 19.13328493 -30.23313923 21.35989902 -37 24 C-24.34614236 26.02461722 -13.50254895 25.01671458 -1.1965332 21.77880859 C-0.33632568 21.55273926 0.52388184 21.32666992 1.41015625 21.09375 C2.17465088 20.88427734 2.93914551 20.67480469 3.72680664 20.45898438 C6.20290328 19.95903145 8.48048257 19.92217707 11 20 C7.68711602 21.78540765 4.31262289 22.96250369 0.73828125 24.12890625 C-0.46248047 24.52400391 -1.66324219 24.91910156 -2.90039062 25.32617188 C-4.80309591 25.94732321 -6.70580253 26.56847059 -8.60864258 27.18920898 C-10.45212107 27.79170709 -12.2944399 28.39774988 -14.13671875 29.00390625 C-15.78740356 29.54253296 -15.78740356 29.54253296 -17.47143555 30.09204102 C-19.90521079 30.76303299 -19.90521079 30.76303299 -21 32 C-8.54056424 34.81792846 1.70326272 32.57599635 14 30 C14.495 30.99 14.495 30.99 15 32 C11.7096777 33.00446104 8.41753178 34.00280756 5.125 35 C4.18785156 35.28617188 3.25070313 35.57234375 2.28515625 35.8671875 C1.38925781 36.13789062 0.49335937 36.40859375 -0.4296875 36.6875 C-1.25710449 36.93886719 -2.08452148 37.19023438 -2.93701172 37.44921875 C-5 38 -5 38 -7 38 C-6.61585937 38.89203125 -6.23171875 39.7840625 -5.8359375 40.703125 C-5.35382813 41.87359375 -4.87171875 43.0440625 -4.375 44.25 C-3.64410156 45.99023438 -3.64410156 45.99023438 -2.8984375 47.765625 C-2 51 -2 51 -2.7578125 53.3125 C-4.06187042 55.08405039 -5.30770533 56.58975444 -7 58 C-7.66 58 -8.32 58 -9 58 C-9 58.66 -9 59.32 -9 60 C-9.66 60 -10.32 60 -11 60 C-11 60.66 -11 61.32 -11 62 C-11.66 62 -12.32 62 -13 62 C-13.39529907 62.88534424 -13.39529907 62.88534424 -13.79858398 63.78857422 C-15.04976701 66.09160527 -16.34804978 67.56361442 -18.22265625 69.3828125 C-19.15368164 70.29740234 -19.15368164 70.29740234 -20.10351562 71.23046875 C-20.74998047 71.85566406 -21.39644531 72.48085937 -22.0625 73.125 C-23.3472393 74.37536074 -24.62989681 75.62786516 -25.91015625 76.8828125 C-26.47871338 77.43340332 -27.04727051 77.98399414 -27.63305664 78.55126953 C-29.10729905 79.97414012 -29.10729905 79.97414012 -30 82 C1.53407465 78.06224246 22.40710973 66.96423764 42.01513672 41.93701172 C42.4638916 41.35967285 42.91264648 40.78233398 43.375 40.1875 C43.80441895 39.63594238 44.23383789 39.08438477 44.67626953 38.51611328 C46.76223399 35.78844181 48.61244023 33.14869333 50 30 C51.32 30.66 52.64 31.32 54 32 C54 32.99 54 33.98 54 35 C52.515 34.505 52.515 34.505 51 34 C50.38253906 34.96679688 49.76507813 35.93359375 49.12890625 36.9296875 C43.97334888 44.89522354 38.63957417 52.17377114 32 59 C31.195625 59.86625 30.39125 60.7325 29.5625 61.625 C12.16509099 77.74942787 -11.94818611 86.12820756 -35.7265625 86.01953125 C-36.52916504 86.01671143 -37.33176758 86.0138916 -38.15869141 86.01098633 C-38.76632324 86.00736084 -39.37395508 86.00373535 -40 86 C-48.68175192 71.06536475 -55.57003341 55.56720635 -56 38 C-56.03867187 37.15953125 -56.07734375 36.3190625 -56.1171875 35.453125 C-56.34861242 26.55612234 -55.22310986 17.61673196 -53 9 C-52.42491699 9.05220703 -51.84983398 9.10441406 -51.25732422 9.15820312 C-41.47912392 9.62497836 -32.49664999 6.94311482 -23.125 4.5 C-20.61232917 3.85326457 -18.09880436 3.21037858 -15.58346558 2.57409668 C-14.02913362 2.18010615 -12.47638581 1.77979432 -10.92556763 1.37219238 C-7.20765313 0.4217984 -3.84358486 -0.23792272 0 0 Z " fill="#242022" transform="translate(71,76)"/>
<path d="M0 0 C-2.49505962 2.49505962 -3.67328888 2.35948376 -7.125 2.625 C-8.03507812 2.69976562 -8.94515625 2.77453125 -9.8828125 2.8515625 C-10.93082031 2.92503906 -10.93082031 2.92503906 -12 3 C-7.82744729 -0.58050131 -5.33135955 -0.26656798 0 0 Z " fill="#201D1E" transform="translate(61,157)"/>
</svg>
